<svg id="Capa_1" enable-background="new 0 0 512 512" height="512" viewBox="0 0 512 512" width="512" xmlns="http://www.w3.org/2000/svg"><g><g><g><g><g><g><g><g><g><ellipse cx="256" cy="256" fill="#7584f2" rx="256" ry="256" transform="matrix(.707 -.707 .707 .707 -106.039 256)"/></g></g></g></g></g></g></g></g><path d="m289.915 509.773c123.495-16.346 219.211-120.725 222.022-248.012l-115.297-115.297-150.216 83.45-79.703-79.702-76.064 116.073 62.131 62.131-18.563 25.668z" fill="#4855b7"/><g><g><path d="m123.96 172.159h238.558v67.617h-238.558z" fill="#fa0"/></g><g><path d="m123.96 207.458h238.558v32.317h-238.558z" fill="#ff9500"/></g><g><g><path d="m148.803 271.942h-43.888c-11.497 0-20.818-9.32-20.818-20.818v-90.314c0-11.497 9.32-20.818 20.818-20.818h43.888c11.497 0 20.818 9.32 20.818 20.818v90.314c0 11.497-9.32 20.818-20.818 20.818z" fill="#ffce00"/></g><g><path d="m84.098 207.458v43.666c0 11.497 9.32 20.818 20.818 20.818h43.888c11.497 0 20.818-9.32 20.818-20.818v-43.666z" fill="#fdba12"/></g><g><path d="m381.562 271.942h-43.888c-11.497 0-20.818-9.32-20.818-20.818v-90.314c0-11.497 9.32-20.818 20.818-20.818h43.888c11.497 0 20.818 9.32 20.818 20.818v90.314c-.001 11.497-9.321 20.818-20.818 20.818z" fill="#ffce00"/></g><g><path d="m316.856 207.458v43.666c0 11.497 9.32 20.818 20.818 20.818h43.888c11.497 0 20.818-9.32 20.818-20.818v-43.666z" fill="#fdba12"/></g></g></g><g><g><path d="m166.721 259.236h238.558v67.617h-238.558z" fill="#00c8c8"/></g><g><path d="m166.721 291.795h238.558v35.057h-238.558z" fill="#00a0aa"/></g><g><g><path d="m191.565 359.019h-43.888c-11.497 0-20.818-9.32-20.818-20.818v-90.314c0-11.497 9.32-20.818 20.818-20.818h43.888c11.497 0 20.818 9.32 20.818 20.818v90.314c-.001 11.498-9.321 20.818-20.818 20.818z" fill="#64e1dc"/></g><g><path d="m126.86 291.795v46.406c0 11.497 9.32 20.818 20.818 20.818h43.888c11.497 0 20.818-9.32 20.818-20.818v-46.406z" fill="#1cadb5"/></g><g><path d="m424.323 359.019h-43.888c-11.497 0-20.818-9.32-20.818-20.818v-90.314c0-11.497 9.32-20.818 20.818-20.818h43.888c11.497 0 20.818 9.32 20.818 20.818v90.314c0 11.498-9.321 20.818-20.818 20.818z" fill="#64e1dc"/></g><g><path d="m359.618 291.795v46.406c0 11.497 9.32 20.818 20.818 20.818h43.888c11.497 0 20.818-9.32 20.818-20.818v-46.406z" fill="#1cadb5"/></g></g></g></g></svg>