<svg id="Capa_1" enable-background="new 0 0 512 512" height="512" viewBox="0 0 512 512" width="512" xmlns="http://www.w3.org/2000/svg" xmlns:xlink="http://www.w3.org/1999/xlink"><linearGradient id="lg1"><stop offset="0" stop-color="#560dff"/><stop offset="1" stop-color="#73ecff"/></linearGradient><linearGradient id="SVGID_1_" gradientUnits="userSpaceOnUse" x1="35.432" x2="486.571" xlink:href="#lg1" y1="476.568" y2="25.429"/><radialGradient id="SVGID_2_" cx="186.028" cy="326.986" gradientUnits="userSpaceOnUse" r="357.234"><stop offset=".09" stop-color="#6b23ea"/><stop offset=".1042" stop-color="#6a27e9" stop-opacity=".984"/><stop offset=".4116" stop-color="#5a74db" stop-opacity=".628"/><stop offset=".6653" stop-color="#4dacd0" stop-opacity=".334"/><stop offset=".8528" stop-color="#46cfc9" stop-opacity=".117"/><stop offset=".9537" stop-color="#43dcc7" stop-opacity="0"/></radialGradient><linearGradient id="SVGID_3_" gradientUnits="userSpaceOnUse" x1="102.815" x2="420.254" y1="463.756" y2="146.317"><stop offset="0" stop-color="#4dfae6"/><stop offset=".0737" stop-color="#5dfae8"/><stop offset=".4023" stop-color="#a2fcf2"/><stop offset=".677" stop-color="#d4fef9"/><stop offset=".8843" stop-color="#f3fffd"/><stop offset="1" stop-color="#fff"/></linearGradient><linearGradient id="SVGID_4_" gradientUnits="userSpaceOnUse" x1="49.933" x2="527.624" y1="462.067" y2="-15.624"><stop offset="0" stop-color="#85ffe0"/><stop offset=".3183" stop-color="#b0ffeb"/><stop offset=".7782" stop-color="#e9fff9"/><stop offset="1" stop-color="#fff"/></linearGradient><linearGradient id="SVGID_5_" gradientUnits="userSpaceOnUse" x1="65.119" x2="266.36" xlink:href="#lg1" y1="446.881" y2="245.64"/><linearGradient id="SVGID_6_" gradientUnits="userSpaceOnUse" x1="103.627" x2="255.749" xlink:href="#lg1" y1="408.775" y2="256.653"/><radialGradient id="SVGID_7_" cx="184.771" cy="327.229" gradientUnits="userSpaceOnUse" r="84.37"><stop offset="0" stop-color="#43dcc7" stop-opacity="0"/><stop offset=".1187" stop-color="#44d7c8" stop-opacity=".059"/><stop offset=".2692" stop-color="#48c7cb" stop-opacity=".135"/><stop offset=".4369" stop-color="#4dadd0" stop-opacity=".219"/><stop offset=".6171" stop-color="#5589d7" stop-opacity=".309"/><stop offset=".8074" stop-color="#5f5ae0" stop-opacity=".404"/><stop offset="1" stop-color="#6b23ea" stop-opacity=".5"/></radialGradient><g><circle cx="256" cy="256" fill="url(#SVGID_1_)" r="256"/><circle cx="256" cy="256" fill="url(#SVGID_2_)" r="256"/><path d="m401.552 87.123c-7.586-.175-15.173-.336-22.759-.484 4.856 55.03 9.293 109.992 13.168 164.875 3.394 1.948 7.33 3.068 11.532 3.069 12.736-.006 23.066-10.194 23.016-22.754-.155-40.46-.699-80.921-1.633-121.381-.297-12.561-10.764-23.029-23.324-23.325z" fill="url(#SVGID_3_)"/><path d="m403.453 231.748c-.134-40.597-.605-81.193-1.412-121.79-.258-12.603-10.688-23.069-23.248-23.319-32.874-.64-65.748-1.022-98.622-1.148-12.561-.05-22.748 10.282-22.754 23.016-.004 12.736 10.251 23.06 22.905 23.096 22.284.062 44.567.209 66.851.441-29.019 29.112-58.44 58.59-87.951 88.118-21.164-14.783-46.828-23.433-74.499-23.322-71.814.516-131.285 58.845-130.335 129.232 1.16 70.367 61.172 130.38 131.541 131.541 70.387.951 128.716-58.522 129.232-130.335.112-27.671-8.539-53.335-23.321-74.5 29.528-29.51 59.005-58.932 88.118-87.951.232 22.284.379 44.567.441 66.851.024 8.476 4.67 15.878 11.564 19.836 6.887-3.952 11.519-11.317 11.49-19.766z" fill="url(#SVGID_4_)"/><path d="m185.395 411.594c-45.999-.544-84.443-38.99-84.989-84.989-.491-46.005 37.604-83.623 84.208-83.746 46.612-.055 84.579 37.915 84.527 84.526-.123 46.604-37.74 84.7-83.746 84.209z" fill="url(#SVGID_5_)"/><path d="m200.381 381.026c-46.203-.364-84.559-38.641-84.855-84.748-.038-7.365.907-14.504 2.699-21.312-11.321 14.25-18.021 32.143-17.819 51.639.545 45.999 38.99 84.443 84.989 84.989 38.707.416 71.368-26.448 80.955-62.697-15.467 19.664-39.259 32.309-65.969 32.129z" fill="url(#SVGID_6_)"/><path d="m185.395 411.594c-45.999-.544-84.443-38.99-84.989-84.989-.491-46.005 37.604-83.623 84.208-83.746 46.612-.055 84.579 37.915 84.527 84.526-.123 46.604-37.74 84.7-83.746 84.209z" fill="url(#SVGID_7_)"/></g></svg>