<svg id="Capa_1" enable-background="new 0 0 512 512" height="512" viewBox="0 0 512 512" width="512" xmlns="http://www.w3.org/2000/svg"><g><g><g><g><g><g><g><g><g><g><circle cx="256" cy="256" fill="#7584f2" r="256"/></g></g></g></g></g></g></g></g></g><path d="m512 256c0-22.971-3.026-45.234-8.7-66.415l-107.49-107.49-247.521 1.869-13.731 199.548-41.589 14.024 56.168 56.168-37.703 34.646 122.732 122.732c7.198.608 14.48.918 21.834.918 141.385 0 256-114.615 256-256z" fill="#4855b7"/><g><path d="m293.018 338.692h-30v-119.075c0-24.314 19.781-44.096 44.096-44.096h30.198c25.143 0 45.597-20.455 45.597-45.597s-20.455-45.597-45.597-45.597h-129.301c-32.169 0-58.341 26.172-58.341 58.341v147.807h-30v-147.807c0-48.711 39.63-88.341 88.341-88.341h129.301c41.685 0 75.597 33.913 75.597 75.597 0 41.685-33.913 75.597-75.597 75.597h-30.198c-7.772 0-14.096 6.323-14.096 14.096z" fill="#fff"/></g><g><path d="m278.769 458.583c-17.273 0-31.276-14.003-31.276-31.276v-91.222h62.552v91.222c0 17.273-14.003 31.276-31.276 31.276z" fill="#ffce00"/></g><g><path d="m279.012 336.085v122.491c17.161-.131 31.033-14.078 31.033-31.27v-91.222h-31.033z" fill="#fdba12"/></g><g><path d="m238.371 320.924h80.795v35.536h-80.795z" fill="#fa0"/></g><g><path d="m279.012 320.924h40.154v35.536h-40.154z" fill="#ff9500"/></g><g><path d="m133.05 399.659c-17.273 0-31.276-14.003-31.276-31.276v-91.222h62.552v91.222c0 17.274-14.003 31.276-31.276 31.276z" fill="#ffce00"/></g><g><path d="m133.293 277.162v122.491c17.161-.131 31.033-14.078 31.033-31.27v-91.222h-31.033z" fill="#fdba12"/></g><g><path d="m92.652 262h80.795v35.536h-80.795z" fill="#fa0"/></g><g><path d="m133.293 262h40.154v35.536h-40.154z" fill="#ff9500"/></g></g></svg>