<svg xmlns="http://www.w3.org/2000/svg" viewBox="0 0 452.98 255.28"><defs></defs><title>Asset 3</title><g id="Layer_2" data-name="Layer 2"><g id="Layer_1-2" data-name="Layer 1"><path class="cls-1" d="M201,194.17l-2-1c2.27-1.63,4.95-2.06,8.85-3.34C205.28,192.62,203.38,193.76,201,194.17Z"/><path class="cls-1" d="M448.35,184.24c-9,13.76-15.94,28.84-26.87,41.36-10.55,12.1-22.38,22.32-38.35,26.52-1.77.47-4.7,1.22-4.09,3.16-19,0-36-.1-55-.1-10.4-2.72-18.84-9.18-27.78-14.67-1.57-1-3.35-2.18-3.94-4.27a2.36,2.36,0,0,1,.72-2.06c22.74,7.3,45.63,8.9,68.59,1.23,14.75-4.91,23.08-15.66,26.39-30.58,1.66-7.45,1.91-15.32,5.4-22.22,6.29-12.47,16.82-20.75,28.72-27.48,2.2-.75,3.46.75,4.63,2.12,6.17,7.22,12.68,14.13,19.46,20.79C447.89,179.72,449.3,181.59,448.35,184.24Z"/><path class="cls-1" d="M36,159.15c9.14,6.25,17.54,13.18,22.35,23.56A57.33,57.33,0,0,1,62.8,200c3.08,25.56,20.18,36.52,43.08,39.23,17.11,2,33.81,1,50.23-4.29.89-.28,1.82-1,3.15,0-9.44,8.39-21.49,12.57-31.26,20.2H71c-3.1-2.56-7.2-2-10.73-3.51C46.66,246,36.48,236,27.07,225.22,19.51,216.53,14,206.46,8.34,196.47c-.89-1.59-1.68-3.26-1.32-5.2,1.59-4.22,5.48-6.54,8.19-9.84,5-6.13,10.28-12.1,15-18.49C31.59,161.09,32.73,158.4,36,159.15Z"/><path class="cls-1" d="M35.81,135.22c-6.1-6.35-12.1-12.81-18.35-19-4.89-4.85-10.5-8.68-17.46-10v-2c13.21,2.3,22.87,10.66,32.52,19,2.24,2,4.4,4,6.6,6C40.64,132.65,39.26,134.51,35.81,135.22Z"/><path class="cls-1" d="M162,255.18a131.35,131.35,0,0,1,7.14-30.4Q168.08,240,167,255.18Z"/><path class="cls-1" d="M226,255.18c1.58-7.83,1-15.84,2-23.73.21-1.71-.31-3.56,1.64-6.29.86,10.83,1.61,20.43,2.37,30Z"/><path class="cls-1" d="M293,236.18c1,6.33,3.12,12.49,3,19h-5c-.51-9.85-1-19.69-1.55-30,2.45,2.72,1.55,6.46,3.55,9Z"/><path class="cls-1" d="M412,141.2a5.74,5.74,0,0,1-1.62,4.05c-16.29,17.82-33.23,35-53.72,48-19.13,12.18-40.23,15.89-62.62,13.18a130.74,130.74,0,0,1-37.29-10.52c-2.37-1.05-4.67-2.27-7.32-3.57,2.05-1.66,3.35-.36,4.58,0,16.1,5.18,32.56,8.14,49.49,7.74,22-.53,41.48-8.22,58.78-21.76,16.53-12.93,31.54-27.51,46.48-42.19C411.79,136.63,413,138.2,412,141.2Z"/><path class="cls-1" d="M48.2,140.16c5.5,3.2,9.83,7.84,14.31,12.18,11.72,11.35,23.88,22.16,37.37,31.35,20.25,13.81,42.66,18.25,66.92,15.75,11-1.13,21.57-3.68,32.2-6.27,1.16-.65,2.08-.83,2,1C181.58,204,160.94,208.7,139.25,207c-19.2-1.48-36.34-8.88-51.63-20.68-15.59-12-29.29-26-42.81-40.24C43.35,142.64,44.82,140.86,48.2,140.16Z"/><path class="cls-1" d="M81.09,5.18C132.61-5.14,181.75-1.61,226,30.17c-1.33,1.23-2.48.2-3.64-.31a235.65,235.65,0,0,0-70.29-18.93A506.84,506.84,0,0,0,90,8.22c-3,0-5.92.6-8.88.92C79.86,7.83,79.74,6.51,81.09,5.18Z"/><path class="cls-1" d="M230,30.21c6.63-7.38,15.42-11.52,24.17-15.47C282.09,2.14,311.7-1.16,341.93.34c9.74.48,19.4,2.52,29.09,3.84,1.71,1.67,1.5,3.32,0,5a50.06,50.06,0,0,0-6.38-.93c-31-.52-61.81.8-92.12,7.87a191.73,191.73,0,0,0-36.86,12.28C233.81,29.2,232.09,30.25,230,30.21Z"/><path class="cls-1" d="M221.35,245.68c-8.17-.76-15.87-2.72-23.89-2.64-8.18.09-16.16,1.33-24.17,2.55-.93.15-2,.87-2.58-.44-.39-.9.41-1.53,1-2.06,13.62-11.69,33.7-12.8,47.45-1.16C220.14,242.73,221.38,243.5,221.35,245.68Z"/><path class="cls-1" d="M236.35,246.23c12.15-16.85,42.27-16,51.85,0C271,241.65,254.09,242.49,236.35,246.23Z"/><path class="cls-1" d="M424,131.24c-3.69.44-4.24,4.32-6.68,6.15-1.57,1.18-2.95,2.59-4.42,3.9a3.93,3.93,0,0,1-.84-.09l-3.24-5c0-.3,0-.6,0-.9l11.05-10.19a1.46,1.46,0,0,1,1.3-.32c2.19,1,2.66,3.19,3.34,5.2A2,2,0,0,1,424,131.24Z"/><path class="cls-1" d="M44.06,146.25c-1.66-4.26-5.41-6.84-8.24-10.15a3.7,3.7,0,0,0,0-.88,14.07,14.07,0,0,0,3.31-6c.28,0,.57-.06.85-.11a17.28,17.28,0,0,0,9,9.06c-.25.67-.49,1.33-.73,2a18.2,18.2,0,0,0-3.39,5.94Q44.44,146.16,44.06,146.25Z"/><path class="cls-1" d="M451,105.15l2,1c-9.11,3-15.59,9.77-22.29,16.11-2.5,2.37-4.5,5.27-6.72,7.93-1.83-1.15-2.53-3-3.25-4.92C429.21,116.18,438.5,108.27,451,105.15Z"/></g></g></svg>