<svg xmlns="http://www.w3.org/2000/svg" viewBox="0 0 387.75 323.35"><title>Asset 2</title><g id="Layer_2" data-name="Layer 2"><g id="Layer_1-2" data-name="Layer 1"><path d="M258,304.36l31,19H261C257.56,317.4,255.91,311.17,258,304.36Z"/><path d="M256,323.35H197c-4.21-4.57-3-10.22-2.82-15.54A38.15,38.15,0,0,0,194,302c.47,5.68-.22,11.36-.12,17,0,2-1.5,3.2-2.91,4.36H132c-1.62-1.53-1.61-3.4-1.45-5.49.57-7.54,1-15.09,2.6-21.27.06-1.9-.91-1-.29-1.28.14-.06.24.1.18.45-1.24,7.66-1.92,15.39-3.19,23a8.18,8.18,0,0,1-2.85,4.55H93c-.54-3.28,2.2-4.2,4.19-5.46,6.62-4.17,13.45-8,19.72-11.56-13.39,4.56-27.77,4.91-42.24,3.59A81.23,81.23,0,0,1,56,306.47c-17.6-5.9-27.31-18.14-30.11-36.28-1.51-9.74-3.49-19.33-10.15-27.22-3.47-4.11-7.62-7.43-11.68-10.87-1.4-1.18-2.94-2.21-3.74-3.95A3.92,3.92,0,0,1,0,226.64a23.63,23.63,0,0,1,8.85-13.08,3.74,3.74,0,0,1,1.56-.13c2.33.43,3.56,2.31,5.05,3.84,14.77,15.1,29.4,30.4,47.46,41.7,20.42,12.77,42.58,17,66.4,12.9a170.82,170.82,0,0,0,35.75-10.26,12,12,0,0,0,2.61-.84c-1.32.54-2.9.91-4.37,1.61a113.58,113.58,0,0,1-75.18,3.35C76,262.18,65.56,255.46,55.52,247.85c-13.82-10.48-26-22.79-38.87-34.27a22.12,22.12,0,0,1-4.21-4.93,5,5,0,0,1,.17-3.25c5.89-12.48,12.4-24.66,16.86-37.8A241.89,241.89,0,0,0,41,116.65c1-9.26,1.94-18.51,2.09-27.83,1.34-3.83.9-8,2.29-11.83,2.77-2.13,6-2.67,9.39-2.74,27.17-.63,54.29.3,81,5.27,16,3,32,6.62,46.51,14.54,2.44,1.34,5.09,2.51,8,2.29,1.9.05,3.81,0,5.71.08,7.76-2.52,14.73-6.83,22.57-9.3a277.65,277.65,0,0,1,56.15-11c17.76-1.78,35.53-2,53.33-1.89,3.06,0,6,.15,8.36,2.48,1.37,2.55,1.54,5.45,2.36,8.16.53,32.9,11.07,63.21,23.79,93,3.66,8.58,8.88,16.34,12.29,25a4,4,0,0,1-.05,1.58c-2.6,5.42-7.42,8.91-11.52,13-13.73,13.57-27.92,26.65-44.13,37.28-20.16,13.22-42.34,17.66-66.18,15-5.62-.63-11.22-1.33-16.76-2.42s-10.77-3.33-16.13-5.07c12.54,4.35,25.13,8.47,38.35,10.21,26.18,3.46,49.72-2.78,70.83-18.73,17.33-13.1,32.49-28.42,47-44.51a2.67,2.67,0,0,1,1.49-.34c4.83,3.56,8.44,8,10,13.93a3.71,3.71,0,0,1-.51,1.52c-5.79,5.73-12.85,9.91-18.63,15.75A41.65,41.65,0,0,0,357,263.26c-.72,4.27-1.45,8.54-2.57,12.71-4.93,18.41-17.64,28.47-35.68,32.24a112.79,112.79,0,0,1-50.45-.72,82.64,82.64,0,0,1-11.18-4c-1.92-1.79-.74-4.45-1.59-6,.61,6.37,1.88,13.18,2.44,20.07C258.16,319.78,257.78,321.83,256,323.35Z"/><path d="M43.82,19.26c23.39-8.8,47.55-14.64,72.12-19a.94.94,0,0,1,1.35,0,3.43,3.43,0,0,1,.89,2.77c-1.19,9.92,3,18.05,9.28,25,17.53,19.2,39,31.47,65,35,6.44.87,12.88-1.36,19-3.36,18.73-6.1,35-16.16,48.31-30.76,6.3-6.92,10.85-14.78,10.09-24.71a5.35,5.35,0,0,1,.71-3.85,1,1,0,0,1,1.36,0A428.54,428.54,0,0,1,331.9,14.81c1.89.6,3.81,1.11,5.72,1.66,3.74,3.45,2.8,8.07,2.38,12.14-1.24,12-.49,24.09-1,36.11a22.78,22.78,0,0,1-2.38,7.77c-2.82,2.59-6.15,1.24-9.07.7a189.7,189.7,0,0,0-46.71-2.52c-25.08,1.68-49.3,7.18-71.53,19.65-4.79,2.68-9.76,5-14.34,8.06l-4,0c-7.07-2.45-13.23-6.72-19.82-10.1a159,159,0,0,0-38.87-13.66c-16-3.49-32.18-4.46-48.51-4.14-10.66.2-21.11,2-31.59,3.67-2.39.38-4.94,1.35-7-1-1.14-2.37-.74-4.91-.66-7.36A57.12,57.12,0,0,0,42.94,50.5a250.41,250.41,0,0,0-1.35-25.09A11.88,11.88,0,0,1,43.82,19.26Z"/></g></g></svg>