<svg xmlns="http://www.w3.org/2000/svg" viewBox="0 0 205.88 287.37"><title>Asset 1</title><g id="Layer_2" data-name="Layer 2"><g id="Capa_1" data-name="Capa 1"><path d="M13.9,147.72c-11.4-3.42-17,6.8-12.18,31.77,6.15,32,10.92,35,16.86,26.49s13.47-15.68,12.18-31.77S21.81,150.11,13.9,147.72Z"/><path d="M174.65,147.72c-7.92,2.39-15.56,10.42-16.85,26.49S164.14,197.59,170,206s10.7,5.5,16.85-26.49C191.62,154.52,186.05,144.3,174.65,147.72Z"/><path d="M175,107.76v-.06c0-55.49-37.75-78.07-80.75-81.76-43,3.69-80.74,26.27-80.74,81.76v.06S10,169.1,14.3,194.25c4.62,26.88,0,40.55,65.45,91.3a58.87,58.87,0,0,0,29.05,0c65.44-50.75,60.83-64.42,65.44-91.3C178.57,169.1,175,107.76,175,107.76Z"/><path d="M147.44,23.08V68.29c29.05,11.32,28.94,83.24,28.94,83.24.59-10.41,3.37-43.7,4-58.3C182.3,45,162.76,28.6,147.44,23.08Z"/><path d="M12.21,151.53S12.16,41.42,56.68,67.84c0,0,20.62-28.32,78.32,19.47,29.32,24.3,67.39-25.22,70.88-32.6,0,0-17.77-5.53-35.64-27.23s-72.36-45.58-111.55-7c0,0-53.63-5.6-50.44,72.78C8.84,107.83,11.61,141.12,12.21,151.53Z"/></g></g></svg>