<svg xmlns="http://www.w3.org/2000/svg" viewBox="0 0 496.43 258.05"><defs></defs><title>Asset 9</title><g id="Layer_2" data-name="Layer 2"><g id="Layer_1-2" data-name="Layer 1"><path class="cls-1" d="M496.43,116C432.91,116,379.29,66.19,373,4.11,310.35,21.57,268.77,49.3,268.77,68.29h-.33a622.79,622.79,0,0,0,3.81,100.2l-72.81-2.12c28.91,22,51.53,49.07,76.49,91.68H493.22"/><path class="cls-1" d="M229.22,41.22l-6.36,126c-14.29,2.78-31.09,3.52-50.54,1.6C98.67,161.53-4,115.67.12,77S95.51-16.73,164.57,4.87C202.72,16.8,209.51,32.54,229.22,41.22Z"/><path class="cls-1" d="M206.74,26.44a156.75,156.75,0,0,1,24.51,10.15A85.29,85.29,0,0,1,294.44,13c49.32,2.41,88.32,45.91,87.11,97.16S339.39,201,290.08,198.58c-23.81-1.16-45.19-11.93-60.84-28.49l-.06-3.82c-15.94,4.24-35.28,5.71-58.13,3.46-5.75-.57-11.67-1.38-17.71-2.39C186.59,132.4,200.48,76,206.74,26.44Z"/></g></g></svg>