<svg xmlns="http://www.w3.org/2000/svg" viewBox="0 0 318.45 340.01"><defs></defs><title>Asset 12</title><g id="Layer_2" data-name="Layer 2"><g id="Layer_1-2" data-name="Layer 1"><path class="cls-1" d="M120.24,264.91c46-36.3-3.63-107.43,76.76-208.75,18.08-22.79,13-34.13,5.33-39C177.67,1.48,53.53,155.7,19.12,210.8S2.52,321.31,27.16,337,69.25,305.14,120.24,264.91Z"/><path class="cls-2" d="M278.32,14.5c9.18-2.21,14.41-.66,19.93,7.21,2.89,4.11,5.14,8.68,8.68,12.29,2.77,2.81,7.22,4.35,9.68,7.29,8.87,10.63-16.91,13.45-23.3,11.52-11.82-3.6-14-15.88-17.43-26.09Z"/><path class="cls-1" d="M179.45,24.8A35.37,35.37,0,0,1,213.13,7.61c23.65,1.84,46-5.95,62.79-7.48s14.73,10,17.15,21.77,12.85,32-4.89,32.27S263,61.26,250.38,67.31s-12.71-8.13-15-11.62c0,0-11.79,13-31.09,2.08,0,0-9.05-7.08-18.5,7.3Z"/></g></g></svg>