<svg xmlns="http://www.w3.org/2000/svg" viewBox="0 0 523.33 266.42"><defs></defs><title>Asset 10</title><g id="Layer_2" data-name="Layer 2"><g id="Layer_1-2" data-name="Layer 1"><path class="cls-1" d="M0,266.42H213.1c25-42.62,47.58-69.68,76.5-91.69l-66.53,1.94a633.1,633.1,0,0,0,4.28-100H227C227,58.05,187.1,31,126.48,13.51,119.73,75.11,66.37,124.36,3.2,124.36"/><path class="cls-1" d="M294.11,41.22l6.36,126c14.29,2.78,31.09,3.52,50.55,1.6,73.64-7.25,176.29-53.11,172.2-91.82S427.82-16.73,358.76,4.87C320.61,16.8,313.82,32.54,294.11,41.22Z"/><path class="cls-1" d="M317.49,25.51A155.94,155.94,0,0,0,293,35.67a85.19,85.19,0,0,0-63.19-23.61c-49.32,2.4-88.31,45.9-87.11,97.15s42.16,90.85,91.47,88.44c23.82-1.16,45.2-11.92,60.84-28.49l2.78-3.13c15.93,4.23,32.56,5,55.42,2.77,5.75-.57,11.67-1.37,17.7-2.39C337.64,131.47,323.74,75.1,317.49,25.51Z"/></g></g></svg>