<svg xmlns="http://www.w3.org/2000/svg" viewBox="0 0 126.66 505.53"><defs></defs><title>Asset 8</title><g id="Layer_2" data-name="Layer 2"><g id="Capa_1" data-name="Capa 1"><path class="cls-1" d="M63.33,0C25.86,4.25-9.33,149.39,2.24,189.83,52,363.45,38,452.33,60.66,446.81l2.67-.63c.84.21,1.73.41,2.66.63,22.63,5.52,8.71-83.36,58.42-257C136,149.39,100.8,4.25,63.33,0Z"/><path class="cls-2" d="M106.39,474H20.27a54.63,54.63,0,0,0-1.6,5.8c-4.13,19.39,7.26,25.72,44.66,25.72S112.1,499.2,108,479.81A57.07,57.07,0,0,0,106.39,474Z"/><path class="cls-3" d="M45.54,415s-4.69,14-8.19,19.72C30.58,445.83,23.2,457,20.53,470c-4,19.39,7,25.71,42.8,25.71s46.75-6.32,42.79-25.71c-2.66-13-10.05-24.2-16.83-35.28C85.81,429,81.12,415,81.12,415A112.14,112.14,0,0,1,45.54,415Z"/><path class="cls-4" d="M25.94,465.86a52.46,52.46,0,0,1,10.74-4.76,77.92,77.92,0,0,1,11.74-2.93A81,81,0,0,1,62.28,457c2.37-.09,4.73.23,7.06.32s4.59.63,6.79.91,4.26,1,6.23,1.4a53.21,53.21,0,0,1,5.47,1.65A38.89,38.89,0,0,1,92.36,463l3.39,1.52,2.91,1.38-3.1-.89L92,463.9c-1.34-.46-3-.68-4.62-1.15s-3.5-.93-5.48-1.19-4-.73-6.17-1-4.37-.53-6.63-.66-4.57-.34-6.87-.23a100.58,100.58,0,0,0-13.51.78,96.46,96.46,0,0,0-11.67,2A82.93,82.93,0,0,0,25.94,465.86Z"/><path class="cls-2" d="M63.49,427.39a68.94,68.94,0,0,1-18-2.22,1.21,1.21,0,1,1,.69-2.31,73.12,73.12,0,0,0,34.76,0,1.2,1.2,0,1,1,.6,2.33A73,73,0,0,1,63.49,427.39Z"/><path class="cls-2" d="M63.49,432.65a72,72,0,0,1-18.89-2.32,1.29,1.29,0,0,1-.86-1.59,1.27,1.27,0,0,1,1.57-.85,76.49,76.49,0,0,0,36.44,0,1.27,1.27,0,0,1,.63,2.46A77.1,77.1,0,0,1,63.49,432.65Z"/><path class="cls-2" d="M63.49,438a77,77,0,0,1-20.26-2.5,1.35,1.35,0,1,1,.76-2.6,82.34,82.34,0,0,0,39.08,0,1.38,1.38,0,0,1,1.66,1,1.35,1.35,0,0,1-1,1.64A82,82,0,0,1,63.49,438Z"/></g></g></svg>