<svg xmlns="http://www.w3.org/2000/svg" viewBox="0 0 318.44 340.01"><defs></defs><title>Asset 11</title><g id="Layer_2" data-name="Layer 2"><g id="Layer_1-2" data-name="Layer 1"><path class="cls-1" d="M198.21,264.91c-46-36.3,3.63-107.43-76.76-208.75-18.09-22.79-13-34.13-5.34-39C140.78,1.48,264.93,155.7,299.32,210.8s16.61,110.51-8,126.15S249.2,305.14,198.21,264.91Z"/><path class="cls-2" d="M40.13,14.5C31,12.29,25.72,13.84,20.2,21.71c-2.89,4.11-5.14,8.68-8.69,12.29-2.76,2.81-7.21,4.35-9.67,7.29C-7,51.92,18.75,54.74,25.14,52.81c11.82-3.6,14-15.88,17.42-26.09Z"/><path class="cls-1" d="M139,24.8A35.38,35.38,0,0,0,105.33,7.61c-23.67,1.84-46-5.95-62.8-7.48s-14.74,10-17.16,21.77-12.84,32,4.89,32.27,25.22,7.09,37.81,13.14,12.7-8.13,15.05-11.62c0,0,11.79,13,31.09,2.08,0,0,9.05-7.08,18.5,7.3Z"/></g></g></svg>