<svg xmlns="http://www.w3.org/2000/svg" viewBox="0 0 457.92 242.98"><defs></defs><title>Asset 7</title><g id="Layer_2" data-name="Layer 2"><g id="Layer_1-2" data-name="Layer 1"><path class="cls-1" d="M0,229.89a141.78,141.78,0,0,0,24.16-26.8c.31-.07.61-.12.91-.17,5,.19,8.44,2.82,10.91,7,0,.32,0,.65,0,1C27.74,221,20,231.48,10.78,240.75c-.8.81-1.72,1.49-2.59,2.23-4-2.77-4.8-7.88-8.19-11.09Z"/><path class="cls-2" d="M408.84,187c-12.62-19.74-20.74-41.48-27.78-63.64-5.59-17.61-9.21-35.64-9.23-54.24-.7-9.12-1.38-10.55,8.3-9.79,6.58.52,6.6.23,8.71,9.15.84,28.83,9,55.84,20.43,82a177.82,177.82,0,0,0,10.1,20.55,10.84,10.84,0,0,1,1.52,5.21C418.23,181.36,415.54,186.42,408.84,187Z"/><path class="cls-2" d="M40,180.81C58.63,149.39,66.08,115,67.12,78.88c.86-4.75.45-9.55.29-14.31-.13-4,1.53-5.4,5.23-5.18a18.41,18.41,0,0,0,3,0c3.61-.37,5.27,1.12,4.91,4.83-.29,2.94.39,5.93-.39,8.86-1,41.44-9.68,80.84-31.2,116.81C43.54,190.75,39.42,186.58,40,180.81Z"/><path class="cls-1" d="M448.35,236a3.4,3.4,0,0,0-1.16-2.63c-9-8.21-17-17.39-25.09-26.48a8,8,0,0,1-.09-1c2.27-5.19,7.59-6.64,11.69-9.61a3.82,3.82,0,0,1,1.43,0c8.08,7.71,17,14.63,22.79,24.51A105.52,105.52,0,0,1,448.35,236Z"/><path class="cls-2" d="M434.07,196.73c-2.76,4.72-7.89,6.29-12.06,9.14-3.48-4-6.83-8.05-9.13-12.87,2.21-5.18,4.76-10,11.12-11C428.85,185.88,433.51,189.91,434.07,196.73Z"/><path class="cls-2" d="M36,209.88c-4.13-1.54-7.5-4.28-10.91-7q5.38-7.54,10.75-15.11A9.28,9.28,0,0,1,44.06,198,72.22,72.22,0,0,1,36,209.88Z"/><path class="cls-2" d="M80.18,33.66c-.06,6.15-.1,12.31-.18,18.47,0,3.8-7.45,8.59-10.88,7.1-1.18-.51-1-1.56-1.12-2.53-.18-2,.43-4-.88-5.81C66.53,38.15,65.89,25.4,64,12.76A30.08,30.08,0,0,0,62.94,9L76,3.88c1.79-1,2.38-.08,2.52,1.56.1,1.14-.17,2.32.34,3.43A235.94,235.94,0,0,1,80.18,33.66Z"/><path class="cls-2" d="M388.16,6.09q-.65,23.9-1.27,47.8c-2.16,1.06,1.18,6.51-3.77,5.1-11-3.14-11.07-1.33-11.09-7.89,0-.81-.14-1.63-.22-2.44q.6-21.37,1.17-42.73c0-2-.2-3.95-.31-5.93Z"/></g></g></svg>