<svg xmlns="http://www.w3.org/2000/svg" viewBox="0 0 156.22 65.15"><defs></defs><title>Asset 1</title><g id="Layer_2" data-name="Layer 2"><g id="Layer_1-2" data-name="Layer 1"><path class="cls-1" d="M10.06,0C7.5,7.12,9.81,13.47,13.45,19.44,18.12,27.08,24.7,33,31.81,38.28A106.26,106.26,0,0,0,67.09,55.44c11.94,3.36,23.09.47,34-4.06,14.82-6.14,28-14.7,38.27-27.22,5.73-7,9.1-14.72,7.36-24L151.15,0c1.24,1,3.06-.25,4.24,1,2.42,9.54-.68,17.77-6.26,25.28-10.18,13.72-24,22.73-39,30.49-22,11.45-43.67,10.89-65.44-.68C30.31,48.51,16.92,39.68,7.06,26.36,1.48,18.82-1.47,10.57.73,1.07c1.18-1.26,3,0,4.22-1Z"/></g></g></svg>