<svg xmlns="http://www.w3.org/2000/svg" viewBox="0 0 827.03 62.73"><defs></defs><title>Asset 1</title><g class="cls-1"><g id="Layer_2" data-name="Layer 2"><g id="Capa_1" data-name="Capa 1"><g class="cls-2"><path class="cls-3" d="M0,0A142.24,142.24,0,0,0,17.73,17.88c2.73,2.55,6.1,4.85,9.36,7.58,3.56,2.35,7.07,5.16,11.09,7.46,2,1.19,4,2.42,6,3.65l6.41,3.28c4.2,2.44,8.88,4,13.38,6S73.28,49,77.85,50.6L91.71,54,105,56.06a44.78,44.78,0,0,0,6.2.63l5.83.47c3.75.25,7.21.73,10.28.6l8,.1c4.45.1,7,.24,7,.24s-2.47.6-6.87,1.5l-8,1.53A66.36,66.36,0,0,1,117,62.22c-3.86.14-8.08.74-12.52.41s-9.17-.46-14-1c-4.79-.93-9.81-1.64-14.82-2.82-4.89-1.6-10-2.84-14.86-4.79-4.77-2.16-9.7-4-14.13-6.65-2.26-1.24-4.5-2.48-6.65-3.79l-6.13-4.25c-4.14-2.64-7.51-6-11-8.85a115.25,115.25,0,0,1-8.72-9A88.63,88.63,0,0,1,7.6,13.14C5.76,10.59,4.34,8.23,3.2,6.3A52.6,52.6,0,0,1,0,0Z"/></g><g class="cls-2"><path class="cls-3" d="M827,0a53.25,53.25,0,0,1-3.19,6.3c-1.15,1.93-2.56,4.29-4.41,6.84a88.42,88.42,0,0,1-6.56,8.31,117.32,117.32,0,0,1-8.73,9.05c-3.45,2.82-6.83,6.21-11,8.85L787,43.6c-2.15,1.31-4.39,2.55-6.65,3.79C776,50.06,771,51.88,766.26,54c-4.86,2-10,3.19-14.86,4.79-5,1.18-10,1.89-14.82,2.82-4.85.52-9.57.7-14,1s-8.67-.27-12.53-.41a66.1,66.1,0,0,1-10.47-1.09l-8-1.53c-4.39-.9-6.86-1.5-6.86-1.5s2.58-.14,7-.24l8-.1c3.07.13,6.53-.35,10.28-.6l5.83-.47a44.92,44.92,0,0,0,6.21-.63L735.32,54l13.86-3.38c4.57-1.61,9.35-2.86,13.87-4.77s9.19-3.55,13.38-6l6.41-3.28,6-3.65c4-2.31,7.53-5.11,11.09-7.46,3.27-2.73,6.63-5,9.36-7.58A142.24,142.24,0,0,0,827,0Z"/></g></g></g></g></svg>