<svg xmlns="http://www.w3.org/2000/svg" viewBox="0 0 315.21 241.25"><title>Asset 5</title><g id="Layer_2" data-name="Layer 2"><g id="Layer_1-2" data-name="Layer 1"><path d="M226.71,20.52c14.53,7,28.9,14.34,40.85,25.43,6.66,6.17,9.46,14.08,10,23.16.66,11-1.58,20.74-8.63,29.35-4.5,5.51-5.14,11.37-2.11,18.13,6,13.36,3.43,25.3-7.51,35.19-2.75,2.5-4.23,5.06-2.3,8.71,6.66,12.6,5.42,25.42.62,38.14-1.71,4.55-2.42,8.93-1.05,13.6a9.58,9.58,0,0,1-.39,2.49c-3.21,4.47-3.25,10-4.82,15-1,3.16-1.79,6.36-4,8.94-5.22,2.25-10.81,1.09-16.2,1.43a195.37,195.37,0,0,1-20.82.7h-11.7c-3.46.26-7-.56-10.4.5h-22a7.89,7.89,0,0,0-6,0h-22c-3.32-1.1-6.74-.22-10.1-.5H115c-13.42-.41-26.84-.64-40.22-1.73-3-1.68-4.18-4.62-4.87-7.64-2.09-9-6.21-17.41-8.35-26.42a8.49,8.49,0,0,0-3.84-5,6,6,0,0,1-2-3.43C51.15,184.28,51,172.19,57,160.28c1.54-3.09.72-5.7-1.63-8.15-2.87-3-6-5.68-8.08-9.45C43.13,135.11,43,127.45,46,119.56c.53-1.4,1-2.82,1.58-4.21,2.35-5.89,1.76-11.31-2.24-16.41C35.19,86.07,33.18,72,39.05,56.69,41.88,49.34,47.58,44.4,53.6,40,63.13,33,73.52,27.29,82,22.79,77.26,24.81,70,26,62.8,26.38a131.78,131.78,0,0,1-33.81-2A53.72,53.72,0,0,1,6.12,13.83C2.9,11.29,1.55,7.82.21,4.25-.55.82.78.15,4.21.15q153.5.18,307,.16c1.29,0,3.1-1.13,4,.94-2.59,10.89-10.59,16.77-20.3,19.94-24.07,7.86-48.12,8.5-71.68-2.34"/><path d="M198.21,241.25c-.69-.38-.67-.68.08-.93l12,0c0,.29-.05.59-.06.89"/><path d="M128.17,240.29c3.35.28,6.84-.9,10,1h-10C127.52,241,127.51,240.63,128.17,240.29Z"/><path d="M198.29,240.32c0,.31-.06.62-.08.93h-10C191.42,239.39,194.92,240.54,198.29,240.32Z"/><path d="M128.17,240.29c0,.32,0,.64,0,1h-7c-.69-.28-.7-.58,0-.92Z"/><path d="M121.17,240.33c0,.31,0,.61,0,.92h-6c0-.3,0-.6,0-.9Z"/><path d="M160.21,241.25a4.92,4.92,0,0,1,6,0Z"/></g></g></svg>