<svg xmlns="http://www.w3.org/2000/svg" viewBox="0 0 315 236.35"><defs></defs><title>Asset 6</title><g id="Layer_2" data-name="Layer 2"><g id="Layer_1-2" data-name="Layer 1"><path class="cls-1" d="M160,211.35A1180.41,1180.41,0,0,1,160,9.47,1085.7,1085.7,0,0,1,160,211.35Z"/><path class="cls-1" d="M310.38,40c-2.49,26.3-4.23,52.29-7.69,78.47-4.31,32.6-9,65.16-13.42,97.74-.71,5.21-.57,10.67-3.37,15.44a59.62,59.62,0,0,1-28.85,4.43c-1.86-1.38-1.41-3.74-2.31-5.53a4.83,4.83,0,0,1,.4-3.15c3.48-5,4.7-11,6.34-16.64,2.31-7.87,6.49-13.2,14.16-15.93-1.88.31-3.61,1-5.41,1.24-5.83.91-9.61,3.88-11.33,9.74-.66,2.24-1.18,5.45-4.9,5.17-.89-7.48,1.22-14.49,3.34-21.52A37.11,37.11,0,0,0,254.49,160c-2.36-4.36-1.51-7.6,2.49-10.79,9.85-7.83,13.35-18.62,8.22-30.28-4.43-10.09-3.07-18.17,3.64-26.24,10.65-12.84,8.75-41-9.92-52.34C247.27,33.25,235.22,26.8,224,19a1.37,1.37,0,0,1,0-2,114.2,114.2,0,0,0,61.23,3.63C297.93,17.93,308.08,11.21,315,0"/><path class="cls-1" d="M0,3C12.13,18.87,29.48,22.2,47.91,23a103.39,103.39,0,0,0,37.42-4.84c1.37-.46,2.84-.63,5.36-1.16-4.85,5.21-10.22,7.73-15.22,10.74-10.1,6.09-20.69,11.39-29,20.17-8.76,9.26-11.45,28.66-5,39.74a65.16,65.16,0,0,0,5.67,8.81c4.78,5.85,5.11,12.18,2.27,18.73-3.84,8.86-5.17,17.51.29,26.24,2.25,3.59,5.58,6.15,8.42,9.17,2,2.11,3.24,4.39,1.74,7.17-6.12,11.34-6.62,23.11-3,35.25a8.74,8.74,0,0,1,.1,2c-1.38,2-3.27,1.9-5.33,1.45a95.62,95.62,0,0,1-9.32-2.32c9.34,3.19,15.16,8.13,16,17.39.14,1.54,1.29,2.66,1.92,4a6.16,6.16,0,0,1,.31,3.21A21,21,0,0,0,59.28,227c0,2.64.12,5.35-1.82,7.54-7,2-13.48-.15-20-2.28-2.86-2.11-3-5.43-3.6-8.48-7.39-40.56-15.11-81.06-22.51-121.62C8.05,84.06,6.42,68,4.08,49.7"/><path class="cls-1" d="M223.17,19.55c0,.67,0,1.33,0,2,3.37,16.62,5.77,33.38,7.75,50.21a117.24,117.24,0,0,1,.89,14.9c-.13,11.78,2.68,23.47.57,35.33-.84,4.68-.08,9.63-.24,14.46a321.25,321.25,0,0,1-9.44,69,71.32,71.32,0,0,1-2.84,9.52c5.39-68,4.18-136-.41-205.3C221.76,13.54,221,17.14,223.17,19.55Z"/><path class="cls-1" d="M99.58,9.66c-3.84,67.57-6.08,135.07.46,202.58C83.08,174.68,82.8,44.15,99.58,9.66Z"/><path class="cls-1" d="M152.51,186.63c-9.14-1.71-17.91-3-26.85-2.71a150.71,150.71,0,0,0-21.21,2.44c-.92.17-2,.8-2.61-.42-.44-.9.32-1.6.93-2.12,14-12,36-13.19,49.12.79C152.18,184.91,152.17,185.48,152.51,186.63Z"/><path class="cls-1" d="M167.51,187c10.54-15.83,40.53-17,52,0C202,182.66,185.17,183.19,167.51,187Z"/><path class="cls-1" d="M152.21,28.39c-7.47-.38-14.52-2.5-21.89-2.51a160,160,0,0,0-25.78,2.47c-.93.15-2,.79-2.67-.35-.5-.91.31-1.56.92-2.09,13.64-11.89,34.53-12.76,48-.63A3.37,3.37,0,0,1,152.21,28.39Z"/><path class="cls-1" d="M219.58,29c-9.36-1.88-17.79-3.12-26.45-3.07-8.43,0-16.61,1.91-25.2,2.72C178.33,12.76,207.24,12.63,219.58,29Z"/><path class="cls-1" d="M167.51,133.25c5.48-6.69,12.58-9.69,20.06-10.9,10.15-1.65,19.88.21,28.09,7.11,1.11.93,3,1.8,2.44,3.38-.69,1.9-2.56.75-3.89.43-14-3.41-28-2.56-42,.16-1,.19-1.95.34-2.94.44C169,133.9,168.68,133.67,167.51,133.25Z"/><path class="cls-1" d="M153,81.79c-17.74-5-34.46-3.72-51.56-.28C110.18,67,141,63.73,153,81.79Z"/><path class="cls-1" d="M166.74,81.79c12.49-16.28,41.42-16.43,51.87-.34C201.12,77.08,184.51,78,166.74,81.79Z"/><path class="cls-1" d="M152.76,134.56c-17.56-5.22-34-3.81-51.12-.24C109.83,119.67,142,116.72,152.76,134.56Z"/><path class="cls-1" d="M254,211c.87-1.79,1.83-3.54,2.58-5.38,4-9.78,14.16-15.09,25.58-12.92-3.11,3.21-6.85,5-10.44,6.81a11.73,11.73,0,0,0-6.56,8.09A114.79,114.79,0,0,1,257,228c-2.52.18-2.77-1.77-3.17-3.49A26.06,26.06,0,0,1,254,213Z"/><path class="cls-1" d="M74,235.85l-8-1c-5.78-4.18-7.15-10.2-7-16.86l-1-2c1.13-4.75-.76-9.4-.53-14.14.1-1.82-.35-3.65,1.53-4.85,2.27,1.47,2.88,4,3.91,6.24C67.7,213.73,70.44,224.92,74,235.85Z"/><path class="cls-1" d="M59,197a54,54,0,0,1,1,14.13A6.75,6.75,0,0,1,58,216c-1.26-3.6-2.59-7.18-3.76-10.81-.71-2.24-2.26-3.51-4.17-4.69-4.16-2.57-8.72-4.58-12.8-8.52,7.28-.3,13.31,2.61,19.72,3.05Z"/><path class="cls-1" d="M254,213l3,15-1,2c.63,1.87-.51,3.41-.94,5.08-2.58,1.31-5.36.82-8.07.87C248.53,228.05,250.48,220.29,254,213Z"/><path class="cls-1" d="M59,218l7,16.86-9-1.12C57,228.43,56.58,223.05,59,218Z"/></g></g></svg>